<svg xmlns="http://www.w3.org/2000/svg" viewBox="0 0 100 100" shape-rendering="crispEdges">
  <rect width="100" height="100" fill="#000"/>
  <!-- outer ring -->
  <rect x="30" y="4" width="40" height="8" fill="#5f9b55"/>
  <rect x="14" y="12" width="16" height="8" fill="#5f9b55"/>
  <rect x="70" y="12" width="16" height="8" fill="#5f9b55"/>
  <rect x="6" y="20" width="8" height="16" fill="#5f9b55"/>
  <rect x="86" y="20" width="8" height="16" fill="#5f9b55"/>
  <rect x="4" y="36" width="8" height="28" fill="#5f9b55"/>
  <rect x="88" y="36" width="8" height="28" fill="#5f9b55"/>
  <rect x="6" y="64" width="8" height="16" fill="#5f9b55"/>
  <rect x="86" y="64" width="8" height="16" fill="#5f9b55"/>
  <rect x="14" y="80" width="16" height="8" fill="#5f9b55"/>
  <rect x="70" y="80" width="16" height="8" fill="#5f9b55"/>
  <rect x="30" y="88" width="40" height="8" fill="#5f9b55"/>
  <!-- top leaf -->
  <rect x="34" y="26" width="32" height="8" fill="#9ed291"/>
  <rect x="26" y="34" width="12" height="8" fill="#9ed291"/>
  <rect x="62" y="34" width="12" height="8" fill="#9ed291"/>
  <!-- bottom leaf -->
  <rect x="26" y="50" width="48" height="8" fill="#5f9b55"/>
  <rect x="18" y="42" width="16" height="8" fill="#5f9b55"/>
  <rect x="66" y="42" width="16" height="8" fill="#5f9b55"/>
  <rect x="34" y="58" width="32" height="8" fill="#4d8044"/>
</svg>
